<svg width="32" height="32" viewBox="0 0 32 32" fill="none" xmlns="http://www.w3.org/2000/svg">
<path d="M10.9601 15.04C10.7725 15.2273 10.667 15.4815 10.6667 15.7467L10.6667 16.2533C10.6698 16.5179 10.7749 16.771 10.9601 16.96L17.8134 23.8C17.9386 23.9262 18.109 23.9972 18.2867 23.9972C18.4645 23.9972 18.6349 23.9262 18.7601 23.8L19.7067 22.8533C19.8322 22.7304 19.9028 22.5622 19.9028 22.3867C19.9028 22.2111 19.8322 22.0429 19.7067 21.92L13.7734 16L19.7067 10.08C19.833 9.95481 19.9039 9.78442 19.9039 9.60666C19.9039 9.4289 19.833 9.2585 19.7067 9.13333L18.7601 8.19999C18.6349 8.07378 18.4645 8.00279 18.2867 8.00279C18.109 8.00279 17.9386 8.07378 17.8134 8.19999L10.9601 15.04Z" fill="#9B9DA3"/>
</svg>
